HIERARCHY
ROOT Hips
{
	OFFSET 0.000000 103.266502 0.000000
	CHANNELS 6 Xposition Yposition Zposition Xrotation Yrotation Zrotation 
	JOINT Spine
	{
		OFFSET -0.002400 12.777504 0.315300
		CHANNELS 3 Xrotation Yrotation Zrotation
		JOINT Spine1
		{
			OFFSET -0.002067 5.816869 0.032633
			CHANNELS 3 Xrotation Yrotation Zrotation
			JOINT Spine1_split
			{
				OFFSET -0.002067 5.816869 0.032633
				CHANNELS 3 Xrotation Yrotation Zrotation
				JOINT Spine2
				{
					OFFSET -0.002067 5.816869 0.032633
					CHANNELS 3 Xrotation Yrotation Zrotation
					JOINT Neck
					{
						OFFSET -0.003700 21.199493 -0.826900
						CHANNELS 3 Xrotation Yrotation Zrotation
						JOINT Head
						{
							OFFSET 0.000000 20.442200 4.834800
							CHANNELS 3 Xrotation Yrotation Zrotation
							JOINT HeadTop_End
							{
								OFFSET 0.000000 34.668396 4.968400
								CHANNELS 3 Xrotation Yrotation Zrotation
								End Site
								{
									OFFSET 0.000000 0.000000 0.000000
								}
							}
						}
					}
					JOINT LeftShoulder
					{
						OFFSET 3.288150 8.794197 -1.372250
						CHANNELS 3 Xrotation Yrotation Zrotation
						JOINT LeftShoulder_split
						{
							OFFSET 3.288150 8.794197 -1.372250
							CHANNELS 3 Xrotation Yrotation Zrotation
							JOINT LeftArm
							{
								OFFSET 11.953299 -2.279007 -0.146200
								CHANNELS 3 Xrotation Yrotation Zrotation
								JOINT LeftForeArm
								{
									OFFSET 18.448900 0.000000 0.000000
									CHANNELS 3 Xrotation Yrotation Zrotation
									JOINT LeftHand
									{
										OFFSET 29.527798 0.000000 0.000000
										CHANNELS 3 Xrotation Yrotation Zrotation
										JOINT LeftHandThumb1
										{
											OFFSET 10.739754 -2.369614 9.225399
											CHANNELS 3 Xrotation Yrotation Zrotation
											JOINT LeftHandThumb2
											{
												OFFSET 4.926170 -2.844131 2.844125
												CHANNELS 3 Xrotation Yrotation Zrotation
												JOINT LeftHandThumb3
												{
													OFFSET 4.614891 -2.664413 2.664409
													CHANNELS 3 Xrotation Yrotation Zrotation
													JOINT LeftHandThumb4
													{
														OFFSET 4.432465 -2.559082 2.559083
														CHANNELS 3 Xrotation Yrotation Zrotation
														End Site
														{
															OFFSET 0.000000 0.000000 0.000000
														}
													}
												}
											}
										}
										JOINT LeftHandIndex1
										{
											OFFSET 26.467674 0.187653 6.405298
											CHANNELS 3 Xrotation Yrotation Zrotation
											JOINT LeftHandIndex2
											{
												OFFSET 8.792900 0.000000 0.000000
												CHANNELS 3 Xrotation Yrotation Zrotation
												JOINT LeftHandIndex3
												{
													OFFSET 10.075203 0.000000 0.000000
													CHANNELS 3 Xrotation Yrotation Zrotation
													End Site
													{
														OFFSET 0.000000 0.000000 0.000000
													}
												}
											}
										}
										JOINT LeftHandMiddle1
										{
											OFFSET 25.764404 0.000000 0.000000
											CHANNELS 3 Xrotation Yrotation Zrotation
											JOINT LeftHandMiddle2
											{
												OFFSET 9.393974 0.000000 0.000000
												CHANNELS 3 Xrotation Yrotation Zrotation
												JOINT LeftHandMiddle3
												{
													OFFSET 10.771950 0.000000 0.000000
													CHANNELS 3 Xrotation Yrotation Zrotation
													End Site
													{
														OFFSET 0.000000 0.000000 0.000000
													}
												}
											}
										}
										JOINT LeftHandRing1
										{
											OFFSET 24.660927 0.144547 -6.225808
											CHANNELS 3 Xrotation Yrotation Zrotation
											JOINT LeftHandRing2
											{
												OFFSET 9.393799 0.000000 0.000000
												CHANNELS 3 Xrotation Yrotation Zrotation
												JOINT LeftHandRing3
												{
													OFFSET 9.928497 0.000000 0.000000
													CHANNELS 3 Xrotation Yrotation Zrotation
													End Site
													{
														OFFSET 0.000000 0.000000 0.000000
													}
												}
											}
										}
										JOINT LeftHandPinky1
										{
											OFFSET 23.655350 0.125290 -12.815412
											CHANNELS 3 Xrotation Yrotation Zrotation
											JOINT LeftHandPinky2
											{
												OFFSET 8.425102 0.000000 0.000000
												CHANNELS 3 Xrotation Yrotation Zrotation
												JOINT LeftHandPinky3
												{
													OFFSET 8.147003 0.000000 0.000000
													CHANNELS 3 Xrotation Yrotation Zrotation
													End Site
													{
														OFFSET 0.000000 0.000000 0.000000
													}
												}
											}
										}
									}
								}
							}
						}
					}
					JOINT RightShoulder
					{
						OFFSET -3.249400 8.794197 -1.372250
						CHANNELS 3 Xrotation Yrotation Zrotation
						JOINT RightShoulder_split
						{
							OFFSET -3.249400 8.794197 -1.372250
							CHANNELS 3 Xrotation Yrotation Zrotation
							JOINT RightArm
							{
								OFFSET -11.953299 -2.279007 -0.146200
								CHANNELS 3 Xrotation Yrotation Zrotation
								JOINT RightForeArm
								{
									OFFSET -18.448900 0.000000 0.000000
									CHANNELS 3 Xrotation Yrotation Zrotation
									JOINT RightHand
									{
										OFFSET -29.527802 0.000000 0.000000
										CHANNELS 3 Xrotation Yrotation Zrotation
										JOINT RightHandThumb1
										{
											OFFSET -10.739754 -2.369614 9.225399
											CHANNELS 3 Xrotation Yrotation Zrotation
											JOINT RightHandThumb2
											{
												OFFSET -4.926170 -2.844131 2.844125
												CHANNELS 3 Xrotation Yrotation Zrotation
												JOINT RightHandThumb3
												{
													OFFSET -4.614891 -2.664413 2.664409
													CHANNELS 3 Xrotation Yrotation Zrotation
													JOINT RightHandThumb4
													{
														OFFSET -4.432465 -2.559082 2.559083
														CHANNELS 3 Xrotation Yrotation Zrotation
														End Site
														{
															OFFSET 0.000000 0.000000 0.000000
														}
													}
												}
											}
										}
										JOINT RightHandIndex1
										{
											OFFSET -26.467674 0.187653 6.405298
											CHANNELS 3 Xrotation Yrotation Zrotation
											JOINT RightHandIndex2
											{
												OFFSET -8.792900 0.000000 0.000000
												CHANNELS 3 Xrotation Yrotation Zrotation
												JOINT RightHandIndex3
												{
													OFFSET -10.075203 0.000000 0.000000
													CHANNELS 3 Xrotation Yrotation Zrotation
													End Site
													{
														OFFSET 0.000000 0.000000 0.000000
													}
												}
											}
										}
										JOINT RightHandMiddle1
										{
											OFFSET -25.764404 0.000000 0.000000
											CHANNELS 3 Xrotation Yrotation Zrotation
											JOINT RightHandMiddle2
											{
												OFFSET -9.393974 0.000000 0.000000
												CHANNELS 3 Xrotation Yrotation Zrotation
												JOINT RightHandMiddle3
												{
													OFFSET -10.771950 0.000000 0.000000
													CHANNELS 3 Xrotation Yrotation Zrotation
													End Site
													{
														OFFSET 0.000000 0.000000 0.000000
													}
												}
											}
										}
										JOINT RightHandRing1
										{
											OFFSET -24.660927 0.144547 -6.225808
											CHANNELS 3 Xrotation Yrotation Zrotation
											JOINT RightHandRing2
											{
												OFFSET -9.393799 0.000000 0.000000
												CHANNELS 3 Xrotation Yrotation Zrotation
												JOINT RightHandRing3
												{
													OFFSET -9.928497 0.000000 0.000000
													CHANNELS 3 Xrotation Yrotation Zrotation
													End Site
													{
														OFFSET 0.000000 0.000000 0.000000
													}
												}
											}
										}
										JOINT RightHandPinky1
										{
											OFFSET -23.655350 0.125290 -12.815412
											CHANNELS 3 Xrotation Yrotation Zrotation
											JOINT RightHandPinky2
											{
												OFFSET -8.425102 0.000000 0.000000
												CHANNELS 3 Xrotation Yrotation Zrotation
												JOINT RightHandPinky3
												{
													OFFSET -8.147003 0.000000 0.000000
													CHANNELS 3 Xrotation Yrotation Zrotation
													End Site
													{
														OFFSET 0.000000 0.000000 0.000000
													}
												}
											}
										}
									}
								}
							}
						}
					}
				}
			}
		}
	}
	JOINT LeftUpLeg
	{
		OFFSET 11.394100 -6.187798 -0.413800
		CHANNELS 3 Xrotation Yrotation Zrotation
		JOINT LeftLeg
		{
			OFFSET 0.430247 -32.302673 3.732800
			CHANNELS 3 Xrotation Yrotation Zrotation
			JOINT LeftFoot
			{
				OFFSET -0.430247 -48.264931 -6.423300
				CHANNELS 3 Xrotation Yrotation Zrotation
				JOINT LeftToeBase
				{
					OFFSET 4.230900 -16.068199 23.438400
					CHANNELS 3 Xrotation Yrotation Zrotation
					JOINT LeftToe_End
					{
						OFFSET 4.510700 0.695400 19.974600
						CHANNELS 3 Xrotation Yrotation Zrotation
						End Site
						{
							OFFSET 0.000000 0.000000 0.000000
						}
					}
				}
			}
		}
	}
	JOINT RightUpLeg
	{
		OFFSET -11.333700 -6.187798 -0.413800
		CHANNELS 3 Xrotation Yrotation Zrotation
		JOINT RightLeg
		{
			OFFSET -0.430392 -32.302628 3.733000
			CHANNELS 3 Xrotation Yrotation Zrotation
			JOINT RightFoot
			{
				OFFSET 0.430392 -48.264973 -6.423500
				CHANNELS 3 Xrotation Yrotation Zrotation
				JOINT RightToeBase
				{
					OFFSET -4.230900 -16.068199 23.438400
					CHANNELS 3 Xrotation Yrotation Zrotation
					JOINT RightToe_End
					{
						OFFSET -4.510700 0.695400 19.974600
						CHANNELS 3 Xrotation Yrotation Zrotation
						End Site
						{
							OFFSET 0.000000 0.000000 0.000000
						}
					}
				}
			}
		}
	}
}
MOTION
Frames: 4
Frame Time: 0.016667
0.324160 76.689201 1.159945 16.523700 -8.969027 -4.983205 10.819990 14.603122 -8.563046 2.878200 4.087945 -0.126407 0.000000 0.000000 0.000000 2.848452 4.312289 -0.311450 -0.690416 -2.335957 4.374013 -6.949599 -9.364418 11.092256 -0.000002 0.000000 -0.000000 1.187665 -1.370110 -14.873632 0.000000 0.000000 0.000000 -9.759255 30.208407 -41.048853 0.000007 -11.762796 0.000003 17.749462 -17.726718 21.007621 -5.456651 -6.701472 3.223884 8.077430 27.563304 1.095396 -10.020031 -14.017850 7.739304 -0.000000 -0.000000 -0.000002 -1.812260 -6.056779 -12.583263 0.237182 1.651686 -16.342781 0.000002 -0.000002 -0.000001 -1.249860 -0.637586 -18.645260 0.387941 2.098225 -20.947907 -0.000001 0.000000 0.000000 0.049646 3.688802 -26.109462 0.502169 2.375017 -23.874312 -0.000001 -0.000000 0.000000 0.229232 4.355136 -33.121206 0.780420 2.923323 -29.888686 -0.000001 -0.000002 0.000001 2.870356 11.957086 -6.152312 0.000000 0.000000 0.000000 -33.803661 70.877556 6.927804 -0.000212 94.709555 0.000221 17.111799 20.467032 -11.105444 -15.303022 26.927623 3.986235 9.854566 -45.625971 -5.441324 -7.056233 3.101005 -14.195945 0.000003 0.000001 0.000001 0.782861 -4.716602 13.868236 0.169905 -1.247745 15.507863 -0.000001 0.000001 -0.000000 1.576765 -6.016262 32.822279 0.816466 -2.636023 34.413608 -0.000001 -0.000000 -0.000002 2.347857 -6.542677 43.827425 1.218023 -3.142197 42.367855 0.000000 -0.000000 0.000000 3.008736 -7.082348 54.088753 1.765793 -3.652474 51.591451 -0.000001 -0.000001 0.000001 -88.430705 -2.602897 4.523208 49.191026 8.683457 -3.919785 16.534797 25.975180 11.725887 -4.472078 -0.000003 0.000005 0.000000 0.000001 0.000000 4.678423 -15.204404 1.926611 49.970931 -10.157787 9.932552 -31.646035 -13.099295 16.975272 -44.289446 -0.000012 -0.000012 -0.000000 0.000000 -0.000000 
-0.373470 76.687889 2.564318 18.087140 -8.661780 -4.935906 11.293848 14.074553 -8.805717 2.886049 3.978107 -0.232998 0.000000 0.000000 0.000000 2.857337 4.195419 -0.413706 -0.775487 -2.317382 4.285789 -7.176071 -9.471884 10.982038 0.000001 -0.000000 -0.000000 1.200901 -1.794892 -15.693772 0.000000 0.000000 0.000000 -10.576668 29.125129 -39.831635 0.000004 -14.202289 -0.000003 18.131915 -16.995302 22.228612 -5.549643 -6.736315 3.295555 8.061843 27.560102 1.140173 -10.020027 -14.017847 7.739304 0.000002 -0.000001 -0.000000 -1.804125 -6.064280 -12.527714 0.233823 1.640173 -16.225645 0.000001 0.000001 -0.000000 -1.242794 -0.654481 -18.510849 0.385024 2.090612 -20.868231 -0.000000 0.000000 -0.000000 0.044785 3.667152 -25.898575 0.498594 2.366927 -23.787824 0.000001 0.000000 0.000000 0.274478 4.440099 -32.904925 0.769662 2.904551 -29.677069 0.000001 -0.000001 0.000001 2.895091 12.404886 -5.753552 0.000000 0.000000 0.000000 -30.219991 69.244232 3.681472 -0.000139 96.122393 0.000150 20.583417 21.050433 -13.126463 -15.466369 26.941183 3.833657 9.820602 -45.228669 -5.419518 -7.056233 3.101002 -14.195942 0.000001 -0.000000 -0.000000 0.750055 -4.663059 13.088636 0.153300 -1.186297 14.726130 -0.000001 0.000001 -0.000001 1.442556 -5.897358 30.789578 0.743597 -2.526495 32.796096 0.000001 0.000001 0.000000 2.163465 -6.430861 41.453719 1.092400 -2.998880 40.023027 -0.000001 0.000000 -0.000001 2.840317 -7.022723 51.977282 1.490559 -3.416678 47.129224 -0.000001 0.000000 -0.000000 -90.604693 -2.732655 4.605810 51.350984 8.015925 -3.832030 15.332982 25.886111 11.094920 -4.472081 -0.000001 0.000003 0.000000 0.000001 0.000000 -2.260500 -14.472992 -1.025999 56.364903 -10.431100 9.871055 -29.061997 -14.043382 18.760298 -40.966296 -0.000012 0.000004 -0.000000 -0.000000 0.000001 
-1.034290 76.722504 3.989241 19.691459 -8.353337 -4.909967 11.772739 13.504145 -9.070763 2.894016 3.864281 -0.347312 0.000000 0.000000 0.000000 2.866436 4.074823 -0.524103 -0.868218 -2.297584 4.191816 -7.411897 -9.572893 10.876493 -0.000001 -0.000000 -0.000000 1.202248 -2.183952 -16.571268 0.000000 0.000000 0.000000 -11.438029 28.007281 -38.630850 -0.000001 -16.749045 -0.000001 18.480072 -16.138069 23.428240 -5.643231 -6.771497 3.367540 8.046188 27.556897 1.185214 -10.020030 -14.017849 7.739304 -0.000002 -0.000001 0.000000 -1.795913 -6.071798 -12.471873 0.230461 1.628584 -16.107813 0.000001 -0.000001 -0.000002 -1.235641 -0.671463 -18.375634 0.382570 2.084164 -20.800769 0.000000 -0.000000 -0.000001 0.039982 3.645367 -25.686400 0.495639 2.360206 -23.716036 0.000000 -0.000001 -0.000000 0.319286 4.525957 -32.687332 0.758935 2.885668 -29.464726 -0.000000 -0.000003 -0.000000 2.921952 12.894757 -5.335061 0.000000 0.000000 0.000000 -27.021027 67.470227 0.787285 -0.000096 97.583657 0.000112 24.180837 21.456156 -15.177642 -15.633615 26.955492 3.677443 9.785840 -44.821778 -5.396997 -7.056233 3.101007 -14.195944 -0.000002 0.000001 -0.000002 0.717154 -4.607645 12.288696 0.137017 -1.122549 13.918172 0.000000 0.000001 0.000001 1.306884 -5.767768 28.660256 0.670838 -2.409929 31.106618 -0.000000 -0.000001 -0.000001 1.971116 -6.299214 38.969375 0.968387 -2.844900 37.590725 -0.000002 -0.000001 -0.000000 2.670723 -6.955889 49.823713 1.221435 -3.145926 42.430119 -0.000004 0.000000 -0.000000 -92.665019 -2.866682 4.673909 53.330117 7.365502 -3.748340 14.129670 25.811324 10.505026 -4.472090 -0.000009 -0.000004 0.000000 -0.000000 0.000000 -8.847865 -13.429750 -4.022843 61.968701 -10.386477 9.785099 -25.465425 -14.806930 20.628467 -37.361886 0.000006 0.000001 0.000001 0.000001 0.000000 
-1.664673 76.783951 5.429203 21.331746 -8.044698 -4.901922 12.253950 12.899518 -9.353660 2.901925 3.747260 -0.467802 0.000000 0.000000 0.000000 2.875550 3.951232 -0.641009 -0.967455 -2.276754 4.092982 -7.655635 -9.668307 10.774950 -0.000001 -0.000000 0.000000 1.192190 -2.545273 -17.494046 0.000000 0.000000 0.000000 -12.336922 26.855255 -37.455135 0.000001 -19.379955 -0.000002 18.788826 -15.181784 24.605550 -5.737358 -6.807008 3.439783 8.030422 27.553644 1.230517 -10.020027 -14.017847 7.739302 -0.000001 0.000001 0.000001 -1.787658 -6.079357 -12.415704 0.227105 1.616923 -15.989348 -0.000001 0.000000 -0.000002 -1.228404 -0.688521 -18.239663 0.380517 2.078755 -20.744270 0.000000 0.000003 -0.000001 0.035235 3.623437 -25.473076 0.493225 2.354712 -23.657463 0.000000 -0.000001 -0.000000 0.363623 4.612634 -32.468503 0.748244 2.866698 -29.251747 -0.000001 0.000001 -0.000001 2.947554 13.415554 -4.901033 0.000000 0.000000 0.000000 -24.203571 65.584023 -1.746843 -0.000156 99.080739 0.000172 27.863630 21.684520 -17.233051 -15.804306 26.970534 3.518023 9.750386 -44.406499 -5.373801 -7.056233 3.101006 -14.195944 0.000001 0.000002 -0.000003 0.684513 -4.550884 11.475699 0.121332 -1.057237 13.093356 0.000001 0.000002 0.000001 1.172686 -5.629147 26.469215 0.599703 -2.288003 29.371077 -0.000000 0.000002 0.000001 1.777380 -6.150715 36.414559 0.848403 -2.682007 35.102343 0.000001 0.000000 -0.000000 2.501526 -6.882151 47.643377 0.967617 -2.843881 37.575097 0.000000 -0.000000 0.000003 -94.626978 -3.003510 4.729845 55.151486 6.730826 -3.667891 12.927268 25.749164 9.948620 -4.472091 -0.000001 0.000000 -0.000000 0.000001 0.000000 -15.097378 -12.121886 -7.020448 66.791211 -10.023856 9.664572 -21.087849 -15.333848 22.409535 -33.761707 -0.000742 0.288190 -0.000000 -0.000000 -0.000000 
